<?xml version="1.0" standalone="no"?>
<!DOCTYPE svg PUBLIC "-//W3C//DTD SVG 20010904//EN"
 "http://www.w3.org/TR/2001/REC-SVG-20010904/DTD/svg10.dtd">
<svg version="1.0" xmlns="http://www.w3.org/2000/svg"
 width="1024.000000pt" height="1536.000000pt" viewBox="0 0 1024.000000 1536.000000"
 preserveAspectRatio="xMidYMid meet">

<g transform="translate(0.000000,1536.000000) scale(0.100000,-0.100000)"
fill="#000000" stroke="none">
<path d="M4998 12453 c50 -2 134 -2 185 0 50 1 9 3 -93 3 -102 0 -143 -2 -92
-3z"/>
<path d="M4818 12443 c12 -2 32 -2 45 0 12 2 2 4 -23 4 -25 0 -35 -2 -22 -4z"/>
<path d="M5323 12443 c15 -2 39 -2 55 0 15 2 2 4 -28 4 -30 0 -43 -2 -27 -4z"/>
<path d="M4718 12433 c12 -2 32 -2 45 0 12 2 2 4 -23 4 -25 0 -35 -2 -22 -4z"/>
<path d="M5438 12433 c12 -2 30 -2 40 0 9 3 -1 5 -23 4 -22 0 -30 -2 -17 -4z"/>
<path d="M4643 12423 c9 -2 25 -2 35 0 9 3 1 5 -18 5 -19 0 -27 -2 -17 -5z"/>
<path d="M5523 12423 c9 -2 23 -2 30 0 6 3 -1 5 -18 5 -16 0 -22 -2 -12 -5z"/>
<path d="M4465 12396 c-167 -35 -505 -139 -492 -152 2 -2 47 12 100 31 136 49
260 83 417 115 74 16 124 28 110 28 -14 1 -74 -10 -135 -22z"/>
<path d="M5583 12413 c9 -2 25 -2 35 0 9 3 1 5 -18 5 -19 0 -27 -2 -17 -5z"/>
<path d="M5695 12394 c33 -7 69 -13 80 -13 11 1 -7 7 -40 15 -33 7 -69 13 -80
13 -11 -1 7 -7 40 -15z"/>
<path d="M5808 12373 c7 -3 16 -2 19 1 4 3 -2 6 -13 5 -11 0 -14 -3 -6 -6z"/>
<path d="M5848 12363 c7 -3 16 -2 19 1 4 3 -2 6 -13 5 -11 0 -14 -3 -6 -6z"/>
<path d="M5888 12353 c7 -3 16 -2 19 1 4 3 -2 6 -13 5 -11 0 -14 -3 -6 -6z"/>
<path d="M5980 12325 c19 -7 42 -13 50 -13 8 0 -1 6 -20 13 -19 7 -42 13 -50
13 -8 0 1 -6 20 -13z"/>
<path d="M6090 12290 c8 -5 22 -9 30 -9 10 0 8 3 -5 9 -27 12 -43 12 -25 0z"/>
<path d="M6171 12266 c8 -8 183 -76 186 -72 2 2 -37 20 -87 40 -84 34 -109 42
-99 32z"/>
<path d="M3803 12175 c-51 -24 -93 -46 -93 -49 0 -4 188 81 199 90 16 14 -27
-3 -106 -41z"/>
<path d="M6371 12186 c2 -2 81 -42 174 -90 94 -47 161 -79 151 -71 -35 27
-349 183 -325 161z"/>
<path d="M3638 12089 c-21 -11 -38 -22 -38 -24 0 -3 18 4 40 15 22 11 40 23
40 25 0 7 0 7 -42 -16z"/>
<path d="M3497 12010 c-68 -40 -197 -128 -197 -136 0 -2 54 31 119 74 65 42
127 82 137 89 44 28 4 9 -59 -27z"/>
<path d="M6720 12008 c12 -13 289 -194 284 -186 -6 10 -226 158 -264 178 -14
7 -23 10 -20 8z"/>
<path d="M4800 11980 c-25 -4 20 -4 100 -2 80 3 147 6 149 8 7 7 -201 1 -249
-6z"/>
<path d="M5191 11986 c2 -2 65 -6 139 -8 84 -4 113 -3 75 2 -62 8 -221 13
-214 6z"/>
<path d="M4584 11946 c-108 -23 -176 -43 -104 -30 120 20 270 52 245 53 -16 0
-80 -11 -141 -23z"/>
<path d="M5493 11963 c9 -2 25 -2 35 0 9 3 1 5 -18 5 -19 0 -27 -2 -17 -5z"/>
<path d="M5640 11939 c52 -10 100 -17 105 -15 11 3 -162 37 -185 35 -8 -1 28
-10 80 -20z"/>
<path d="M5775 11913 c615 -152 1148 -507 1528 -1016 95 -127 169 -248 249
-407 37 -74 67 -131 68 -126 0 4 -27 63 -60 130 -127 259 -296 491 -515 712
-265 266 -546 453 -900 597 -113 47 -344 118 -373 116 -13 -1 -12 -3 3 -6z"/>
<path d="M4335 11886 c-266 -76 -581 -231 -815 -401 -430 -311 -770 -758 -951
-1248 -16 -43 -29 -84 -29 -90 0 -7 18 33 39 88 76 199 109 267 219 454 149
253 407 541 665 742 250 195 602 372 892 450 44 12 82 23 84 25 9 9 -28 1
-104 -20z"/>
<path d="M3174 11783 c-60 -48 -179 -156 -264 -242 l-155 -155 155 150 c85 83
202 188 260 233 116 92 127 101 118 101 -3 0 -55 -39 -114 -87z"/>
<path d="M7023 11804 c3 -6 34 -32 68 -59 35 -27 60 -44 56 -37 -5 6 -35 33
-69 59 -34 26 -59 42 -55 37z"/>
<path d="M7160 11697 c0 -2 15 -16 33 -33 l32 -29 -29 33 c-28 30 -36 37 -36
29z"/>
<path d="M7355 11510 c72 -74 150 -157 174 -185 l43 -50 -37 50 c-37 50 -171
191 -261 275 -27 25 10 -16 81 -90z"/>
<path d="M2729 11353 l-24 -28 28 24 c25 23 32 31 24 31 -2 0 -14 -12 -28 -27z"/>
<path d="M2640 11244 c-94 -119 -305 -444 -287 -444 2 0 26 37 52 83 62 105
183 283 252 370 30 37 51 67 49 67 -3 0 -33 -34 -66 -76z"/>
<path d="M7618 11210 c27 -36 70 -96 97 -135 53 -76 80 -108 50 -60 -32 54
-129 186 -163 224 -18 20 -11 7 16 -29z"/>
<path d="M4023 11206 c-80 -25 -160 -92 -197 -165 -27 -52 -17 -48 13 5 58
101 145 153 276 164 l80 7 -65 1 c-36 0 -84 -5 -107 -12z"/>
<path d="M6009 11206 c-55 -19 -103 -52 -144 -97 -40 -45 -75 -112 -74 -144 0
-11 6 -2 13 21 17 53 66 124 108 156 61 47 101 61 188 68 l85 7 -70 1 c-38 1
-86 -5 -106 -12z"/>
<path d="M4249 11188 c67 -26 135 -93 170 -168 32 -71 36 -199 8 -272 -17 -43
-74 -106 -121 -133 -16 -9 -16 -12 -1 -45 15 -32 16 -15 1 20 -4 10 6 21 31
35 81 43 132 168 118 289 -8 77 -33 134 -85 196 -39 47 -126 101 -159 99 -9 0
8 -9 38 -21z"/>
<path d="M6198 11203 c7 -3 16 -2 19 1 4 3 -2 6 -13 5 -11 0 -14 -3 -6 -6z"/>
<path d="M6265 11178 c22 -11 58 -34 80 -50 l40 -30 -35 32 c-34 31 -101 70
-117 70 -4 -1 10 -10 32 -22z"/>
<path d="M6388 11077 c8 -8 22 -37 32 -64 11 -26 19 -41 19 -33 1 22 -35 96
-50 106 -12 6 -12 5 -1 -9z"/>
<path d="M7801 10945 c12 -22 26 -44 32 -50 15 -16 -20 48 -38 70 -9 11 -7 2
6 -20z"/>
<path d="M3792 10875 c-1 -61 4 -100 14 -120 8 -16 11 -21 7 -10 -3 11 -9 65
-13 120 l-7 100 -1 -90z"/>
<path d="M6443 10925 c0 -22 2 -30 4 -17 2 12 2 30 0 40 -3 9 -5 -1 -4 -23z"/>
<path d="M5783 10875 c0 -38 2 -53 4 -32 2 20 2 52 0 70 -2 17 -4 1 -4 -38z"/>
<path d="M6438 10822 c-11 -112 -65 -187 -165 -233 -69 -32 -82 -43 -29 -25
125 43 216 170 204 287 -2 25 -5 18 -10 -29z"/>
<path d="M7855 10850 c9 -16 18 -30 21 -30 2 0 -2 14 -11 30 -9 17 -18 30 -21
30 -2 0 2 -13 11 -30z"/>
<path d="M7937 10695 c32 -63 59 -113 61 -111 4 5 -106 226 -113 226 -3 0 21
-52 52 -115z"/>
<path d="M5791 10785 c0 -11 6 -31 14 -45 18 -32 18 -25 0 25 -8 22 -14 31
-14 20z"/>
<path d="M2307 10715 c-15 -30 -25 -55 -22 -55 7 0 57 101 53 106 -2 2 -16
-21 -31 -51z"/>
<path d="M3820 10716 c0 -4 13 -27 30 -51 31 -46 79 -80 139 -101 27 -9 38
-19 42 -41 l7 -28 1 32 c1 29 -2 33 -49 48 -58 19 -100 52 -141 109 -16 21
-29 36 -29 32z"/>
<path d="M5829 10693 c13 -26 90 -93 105 -92 6 0 0 8 -14 17 -14 9 -42 34 -64
56 -21 22 -34 30 -27 19z"/>
<path d="M2251 10605 c-29 -65 -26 -71 5 -12 14 27 23 51 21 54 -3 2 -15 -17
-26 -42z"/>
<path d="M5926 10575 c-9 -26 -7 -32 5 -12 6 10 9 21 6 23 -2 3 -7 -2 -11 -11z"/>
<path d="M8000 10569 c0 -4 11 -31 25 -60 14 -30 22 -43 19 -29 -7 26 -43 100
-44 89z"/>
<path d="M2212 10515 c-17 -37 -14 -45 4 -12 9 16 14 31 11 33 -2 2 -9 -7 -15
-21z"/>
<path d="M5890 10474 l-22 -66 -72 5 -71 5 62 -10 c34 -6 68 -8 76 -5 14 5 61
126 53 134 -2 3 -14 -26 -26 -63z"/>
<path d="M6201 10514 c0 -11 3 -14 6 -6 3 7 2 16 -1 19 -3 4 -6 -2 -5 -13z"/>
<path d="M4041 10464 c0 -11 3 -14 6 -6 3 7 2 16 -1 19 -3 4 -6 -2 -5 -13z"/>
<path d="M6192 10460 c0 -14 2 -19 5 -12 2 6 2 18 0 25 -3 6 -5 1 -5 -13z"/>
<path d="M2181 10439 c-6 -18 -9 -34 -7 -36 2 -2 9 10 15 28 6 18 9 34 7 36
-2 2 -9 -10 -15 -28z"/>
<path d="M4346 10450 c12 -48 26 -54 96 -42 l63 10 -67 -5 -67 -5 -15 33 c-11
23 -14 26 -10 9z"/>
<path d="M4815 10461 c-38 -4 58 -5 215 -3 157 2 290 5 295 7 17 6 -436 2
-510 -4z"/>
<path d="M5341 10456 c2 -2 54 -6 114 -9 72 -3 93 -2 60 3 -51 8 -182 13 -174
6z"/>
<path d="M4668 10443 c12 -2 30 -2 40 0 9 3 -1 5 -23 4 -22 0 -30 -2 -17 -4z"/>
<path d="M8056 10430 c3 -14 11 -32 16 -40 6 -10 7 -7 2 10 -3 14 -11 32 -16
40 -6 10 -7 7 -2 -10z"/>
<path d="M4050 10428 c0 -20 19 -72 25 -67 2 3 -2 23 -10 44 -8 22 -14 32 -15
23z"/>
<path d="M4603 10433 c9 -2 23 -2 30 0 6 3 -1 5 -18 5 -16 0 -22 -2 -12 -5z"/>
<path d="M5588 10433 c12 -2 30 -2 40 0 9 3 -1 5 -23 4 -22 0 -30 -2 -17 -4z"/>
<path d="M4528 10423 c12 -2 30 -2 40 0 9 3 -1 5 -23 4 -22 0 -30 -2 -17 -4z"/>
<path d="M5668 10423 c12 -2 30 -2 40 0 9 3 -1 5 -23 4 -22 0 -30 -2 -17 -4z"/>
<path d="M6180 10418 c0 -7 -3 -23 -6 -35 -5 -18 -2 -23 12 -22 11 0 14 3 7 5
-8 4 -10 16 -6 35 3 16 3 29 -1 29 -3 0 -6 -6 -6 -12z"/>
<path d="M2121 10265 c-23 -70 -41 -133 -40 -139 0 -6 20 50 44 124 24 74 42
136 40 138 -2 2 -22 -53 -44 -123z"/>
<path d="M8081 10366 c-1 -5 13 -52 30 -105 17 -53 44 -145 60 -206 16 -60 26
-90 23 -65 -10 69 -111 406 -113 376z"/>
<path d="M3998 10353 c7 -3 16 -2 19 1 4 3 -2 6 -13 5 -11 0 -14 -3 -6 -6z"/>
<path d="M6285 10336 c44 -14 87 -25 95 -25 20 1 -96 37 -140 44 -19 3 1 -6
45 -19z"/>
<path d="M3958 10343 c7 -3 16 -2 19 1 4 3 -2 6 -13 5 -11 0 -14 -3 -6 -6z"/>
<path d="M7626 10335 c24 -73 78 -215 81 -211 5 5 -39 130 -66 186 -12 25 -18
36 -15 25z"/>
<path d="M3905 10330 c-13 -6 -15 -9 -5 -9 8 0 22 4 30 9 18 12 2 12 -25 0z"/>
<path d="M3785 10295 c-38 -13 -65 -23 -60 -24 6 0 44 10 85 23 41 13 68 24
60 24 -8 0 -46 -10 -85 -23z"/>
<path d="M6415 10300 c11 -5 27 -9 35 -9 9 0 8 4 -5 9 -11 5 -27 9 -35 9 -9 0
-8 -4 5 -9z"/>
<path d="M6545 10261 c128 -45 154 -59 213 -114 45 -42 51 -46 33 -19 -34 48
-115 98 -215 132 -48 17 -93 30 -99 29 -7 0 24 -13 68 -28z"/>
<path d="M3670 10260 c-18 -12 -2 -12 25 0 13 6 15 9 5 9 -8 0 -22 -4 -30 -9z"/>
<path d="M3598 10229 c-21 -11 -38 -22 -38 -24 0 -5 79 32 89 41 12 11 -18 1
-51 -17z"/>
<path d="M3510 10174 c-17 -15 -48 -52 -69 -83 -38 -56 -121 -213 -121 -228 1
-5 24 37 53 92 64 122 107 185 149 219 18 14 30 26 26 26 -3 0 -21 -12 -38
-26z"/>
<path d="M2531 10123 c-1 -6 -4 -20 -7 -30 -5 -17 -5 -17 6 0 6 10 9 23 6 30
-3 9 -5 9 -5 0z"/>
<path d="M2071 10094 c0 -11 3 -14 6 -6 3 7 2 16 -1 19 -3 4 -6 -2 -5 -13z"/>
<path d="M7711 10105 c0 -5 8 -39 19 -75 10 -36 19 -56 19 -45 0 21 -36 137
-38 120z"/>
<path d="M2052 10023 c-32 -148 -53 -275 -49 -295 3 -18 5 -17 6 7 1 17 15 97
31 179 16 83 28 151 26 154 -2 2 -9 -18 -14 -45z"/>
<path d="M2511 10054 c0 -11 3 -14 6 -6 3 7 2 16 -1 19 -3 4 -6 -2 -5 -13z"/>
<path d="M6887 9953 c32 -61 59 -110 61 -108 5 4 -83 176 -102 200 -9 11 10
-30 41 -92z"/>
<path d="M2496 9999 c-8 -42 0 -50 9 -9 4 17 5 34 2 36 -2 3 -7 -10 -11 -27z"/>
<path d="M7752 9945 c0 -11 4 -31 8 -45 6 -20 8 -21 8 -5 0 11 -4 31 -8 45 -6
20 -8 21 -8 5z"/>
<path d="M2465 9855 c-10 -53 -16 -98 -13 -100 2 -3 12 39 21 92 10 52 16 98
13 100 -2 2 -12 -39 -21 -92z"/>
<path d="M8202 9920 c0 -14 2 -19 5 -12 2 6 2 18 0 25 -3 6 -5 1 -5 -13z"/>
<path d="M8212 9875 c0 -11 5 -54 13 -95 7 -41 13 -61 13 -45 1 17 -5 59 -12
95 -8 36 -14 56 -14 45z"/>
<path d="M7776 9830 c14 -107 32 -202 33 -170 0 19 -8 76 -19 125 -11 50 -17
70 -14 45z"/>
<path d="M3297 9808 c-9 -23 -15 -43 -13 -45 2 -2 11 15 20 38 9 23 15 43 13
45 -2 2 -11 -15 -20 -38z"/>
<path d="M6953 9820 c3 -8 21 -55 40 -105 19 -49 45 -127 58 -173 12 -45 24
-80 26 -78 11 11 -80 287 -113 344 -8 15 -13 20 -11 12z"/>
<path d="M2443 9705 c0 -22 2 -30 4 -17 2 12 2 30 0 40 -3 9 -5 -1 -4 -23z"/>
<path d="M3251 9689 c-6 -18 -11 -37 -10 -43 0 -6 7 7 15 28 8 22 12 41 10 43
-2 2 -9 -10 -15 -28z"/>
<path d="M8247 9610 c3 -52 7 -97 9 -99 7 -8 3 104 -6 149 -5 31 -6 15 -3 -50z"/>
<path d="M1992 9660 c0 -19 2 -27 5 -17 2 9 2 25 0 35 -3 9 -5 1 -5 -18z"/>
<path d="M2433 9625 c0 -22 2 -30 4 -17 2 12 2 30 0 40 -3 9 -5 -1 -4 -23z"/>
<path d="M3216 9578 c-37 -127 -97 -436 -95 -484 0 -10 14 53 29 141 16 88 42
212 59 275 30 117 35 164 7 68z"/>
<path d="M7813 9580 c0 -25 2 -35 4 -22 2 12 2 32 0 45 -2 12 -4 2 -4 -23z"/>
<path d="M1983 9555 c0 -27 2 -38 4 -22 2 15 2 37 0 50 -2 12 -4 0 -4 -28z"/>
<path d="M2422 9528 c-1 -31 -5 -65 -8 -75 -5 -17 -5 -17 6 0 6 9 9 42 7 75
l-3 57 -2 -57z"/>
<path d="M7822 9315 c-1 -121 -4 -258 -7 -305 l-4 -85 10 85 c5 47 8 184 6
305 l-2 220 -3 -220z"/>
<path d="M8264 9290 c0 -118 2 -167 3 -107 2 59 2 155 0 215 -1 59 -3 10 -3
-108z"/>
<path d="M4320 9470 c-14 -4 8 -5 50 -2 41 2 77 6 79 8 8 7 -104 2 -129 -6z"/>
<path d="M5762 9472 c-13 -4 19 -7 70 -7 80 0 101 -4 149 -26 74 -35 133 -95
170 -172 16 -34 29 -55 29 -47 0 36 -69 137 -124 181 -81 66 -205 96 -294 71z"/>
<path d="M4480 9462 c139 -48 234 -169 260 -332 l9 -55 -4 55 c-4 69 -35 151
-79 210 -40 55 -129 118 -176 125 -28 4 -30 3 -10 -3z"/>
<path d="M1974 9280 c0 -102 2 -143 3 -92 2 50 2 134 0 185 -1 50 -3 9 -3 -93z"/>
<path d="M4214 9426 c-92 -62 -159 -167 -169 -263 l-5 -48 13 55 c28 116 95
210 187 260 30 16 48 30 40 30 -8 0 -38 -16 -66 -34z"/>
<path d="M5682 9443 c-54 -26 -131 -102 -158 -154 -49 -98 -67 -235 -45 -344
6 -27 7 -8 4 55 -3 52 0 121 5 152 24 123 93 225 192 278 58 31 59 41 2 13z"/>
<path d="M7081 9445 c0 -5 8 -50 18 -100 11 -49 20 -76 19 -60 0 29 -35 180
-37 160z"/>
<path d="M2414 9275 c0 -88 2 -123 3 -77 2 46 2 118 0 160 -1 42 -3 5 -3 -83z"/>
<path d="M7127 9195 c3 -33 11 -109 19 -170 l13 -110 -5 95 c-3 52 -12 129
-19 170 -13 71 -14 72 -8 15z"/>
<path d="M6181 9184 c0 -11 3 -14 6 -6 3 7 2 16 -1 19 -3 4 -6 -2 -5 -13z"/>
<path d="M6192 9130 c0 -19 2 -27 5 -17 2 9 2 25 0 35 -3 9 -5 1 -5 -18z"/>
<path d="M4033 9040 c0 -41 2 -58 4 -37 2 20 2 54 0 75 -2 20 -4 3 -4 -38z"/>
<path d="M2421 9049 c0 -30 5 -76 9 -104 6 -35 7 -21 3 50 -6 108 -14 142 -12
54z"/>
<path d="M6203 9045 c0 -27 2 -38 4 -22 2 15 2 37 0 50 -2 12 -4 0 -4 -28z"/>
<path d="M1983 9025 c0 -33 2 -45 4 -27 2 18 2 45 0 60 -2 15 -4 0 -4 -33z"/>
<path d="M4746 9039 c-3 -17 -5 -46 -5 -63 1 -18 5 -7 10 28 9 63 6 88 -5 35z"/>
<path d="M8253 9020 c0 -30 2 -43 4 -27 2 15 2 39 0 55 -2 15 -4 2 -4 -28z"/>
<path d="M3107 8991 c-4 -35 -6 -85 -6 -110 1 -27 5 -7 10 49 10 108 7 158 -4
61z"/>
<path d="M6192 8955 c0 -16 2 -22 5 -12 2 9 2 23 0 30 -3 6 -5 -1 -5 -18z"/>
<path d="M4041 8939 c-1 -35 34 -136 63 -179 68 -101 155 -151 270 -156 l71
-3 -73 9 c-102 13 -163 43 -221 106 -49 54 -84 126 -101 209 -6 29 -8 33 -9
14z"/>
<path d="M1992 8920 c-1 -41 26 -197 26 -160 1 14 -5 63 -12 110 -8 47 -14 69
-14 50z"/>
<path d="M8241 8928 c-1 -24 -31 -204 -47 -288 -4 -19 -4 -33 -1 -30 11 10 58
289 54 317 l-4 28 -2 -27z"/>
<path d="M4726 8909 c-8 -42 0 -50 9 -9 4 17 5 34 2 36 -2 3 -7 -10 -11 -27z"/>
<path d="M6181 8906 c-2 -34 -60 -142 -103 -192 l-42 -49 43 40 c46 43 115
174 108 203 -4 15 -5 15 -6 -2z"/>
<path d="M7796 8864 c-4 -31 -5 -59 -2 -61 2 -3 8 21 11 52 4 31 5 58 3 61 -3
2 -8 -21 -12 -52z"/>
<path d="M7164 8685 c0 -126 2 -177 3 -112 2 65 2 168 0 230 -1 62 -3 9 -3
-118z"/>
<path d="M5495 8878 c16 -56 60 -131 101 -173 60 -63 134 -95 226 -100 l73 -4
-73 9 c-39 5 -95 19 -122 31 -70 30 -152 121 -181 199 -21 58 -37 83 -24 38z"/>
<path d="M2442 8860 c0 -19 2 -27 5 -17 2 9 2 25 0 35 -3 9 -5 1 -5 -18z"/>
<path d="M4701 8829 c-29 -84 -121 -170 -219 -205 -21 -7 -29 -13 -20 -14 37
-1 112 43 164 95 49 49 103 139 91 151 -3 3 -10 -9 -16 -27z"/>
<path d="M2451 8809 c-3 -55 65 -326 121 -479 32 -89 133 -310 142 -310 2 0
-19 51 -49 113 -83 175 -144 362 -190 580 -13 62 -24 105 -24 96z"/>
<path d="M3094 8615 c0 -99 2 -138 3 -87 2 51 2 132 0 180 -1 48 -3 6 -3 -93z"/>
<path d="M7782 8765 c0 -16 2 -22 5 -12 2 9 2 23 0 30 -3 6 -5 -1 -5 -18z"/>
<path d="M2022 8710 c0 -14 2 -19 5 -12 2 6 2 18 0 25 -3 6 -5 1 -5 -13z"/>
<path d="M7772 8710 c0 -14 2 -19 5 -12 2 6 2 18 0 25 -3 6 -5 1 -5 -13z"/>
<path d="M2032 8655 c0 -16 2 -22 5 -12 2 9 2 23 0 30 -3 6 -5 -1 -5 -18z"/>
<path d="M7761 8664 c0 -11 3 -14 6 -6 3 7 2 16 -1 19 -3 4 -6 -2 -5 -13z"/>
<path d="M6014 8660 c-6 -6 -35 -19 -65 -30 -30 -10 -45 -19 -34 -19 25 -1
100 33 109 48 9 14 3 14 -10 1z"/>
<path d="M7717 8501 c-21 -75 -58 -186 -82 -246 -24 -60 -42 -111 -41 -113 5
-4 63 137 92 222 30 87 77 266 72 271 -2 2 -20 -58 -41 -134z"/>
<path d="M2041 8604 c0 -11 3 -14 6 -6 3 7 2 16 -1 19 -3 4 -6 -2 -5 -13z"/>
<path d="M8181 8584 c0 -11 3 -14 6 -6 3 7 2 16 -1 19 -3 4 -6 -2 -5 -13z"/>
<path d="M2052 8565 c0 -11 3 -29 8 -40 11 -25 11 1 0 35 -6 20 -8 21 -8 5z"/>
<path d="M8151 8473 c-33 -124 -35 -137 -7 -62 22 61 42 149 34 149 -2 0 -14
-39 -27 -87z"/>
<path d="M2071 8485 c1 -21 27 -98 28 -80 0 6 -6 30 -13 55 -8 25 -15 36 -15
25z"/>
<path d="M3103 8375 c0 -27 2 -38 4 -22 2 15 2 37 0 50 -2 12 -4 0 -4 -28z"/>
<path d="M7146 8349 c-4 -39 -5 -73 -3 -76 3 -2 8 28 12 67 4 39 5 73 2 76 -2
3 -8 -27 -11 -67z"/>
<path d="M2101 8380 c0 -8 4 -22 9 -30 12 -18 12 -2 0 25 -6 13 -9 15 -9 5z"/>
<path d="M6057 8305 c-32 -20 -109 -60 -170 -90 -61 -30 -108 -55 -104 -55 20
0 155 64 240 114 52 31 99 56 103 56 4 0 22 -12 38 -27 28 -26 29 -26 11 -3
-40 50 -43 50 -118 5z"/>
<path d="M8070 8218 c-81 -224 -217 -478 -379 -713 -245 -355 -624 -704 -1015
-934 -162 -96 -427 -220 -564 -265 -29 -10 -51 -20 -48 -23 11 -11 249 88 433
181 325 163 570 341 849 620 271 272 448 521 619 869 69 140 163 372 154 381
-2 3 -24 -50 -49 -116z"/>
<path d="M2121 8324 c-1 -15 51 -165 88 -254 47 -111 144 -292 216 -402 35
-53 65 -107 68 -120 l4 -23 2 23 c0 13 -27 66 -64 123 -115 174 -211 370 -280
569 -19 52 -34 90 -34 84z"/>
<path d="M4080 8302 c-32 -32 -46 -84 -36 -136 10 -52 59 -111 135 -162 73
-48 98 -85 87 -127 -7 -31 -180 -293 -198 -300 -9 -4 -9 -6 -1 -6 21 -2 196
253 208 302 12 47 -12 84 -90 138 -85 59 -125 111 -132 172 -9 81 52 161 96
124 62 -52 210 -127 345 -173 115 -40 99 -26 -24 20 -133 50 -203 84 -282 137
-31 22 -62 39 -68 39 -6 0 -24 -13 -40 -28z"/>
<path d="M3116 8250 c8 -135 25 -177 96 -245 105 -100 330 -246 501 -324 103
-48 263 -111 279 -111 7 0 -54 27 -137 61 -175 70 -278 124 -430 224 -135 89
-222 160 -252 203 -22 34 -37 89 -53 203 l-9 64 5 -75z"/>
<path d="M6195 8195 c0 -68 -2 -76 -30 -105 -16 -18 -55 -49 -85 -70 -131 -90
-132 -121 -14 -296 75 -111 114 -155 138 -153 6 0 1 5 -12 11 -26 13 -121 141
-171 229 -19 34 -31 70 -31 92 0 39 1 40 126 130 36 26 67 59 77 80 17 36 23
122 9 144 -4 6 -7 -22 -7 -62z"/>
<path d="M7132 8230 c0 -19 2 -27 5 -17 2 9 2 25 0 35 -3 9 -5 1 -5 -18z"/>
<path d="M7122 8165 c0 -16 2 -22 5 -12 2 9 2 23 0 30 -3 6 -5 -1 -5 -18z"/>
<path d="M5705 8139 c-27 -10 -37 -17 -21 -14 31 7 97 33 81 33 -5 0 -32 -8
-60 -19z"/>
<path d="M7107 8108 c-9 -35 -140 -155 -241 -222 -158 -104 -448 -252 -601
-307 -27 -9 -45 -18 -38 -18 36 -2 325 129 486 220 235 133 421 291 405 341
-3 7 -8 1 -11 -14z"/>
<path d="M7575 8119 c-4 -6 -5 -12 -2 -15 2 -3 7 2 10 11 7 17 1 20 -8 4z"/>
<path d="M5545 8098 c-44 -10 -118 -26 -165 -33 -75 -13 -78 -14 -23 -10 69 5
185 28 253 49 65 20 28 17 -65 -6z"/>
<path d="M4592 8105 c8 -8 180 -45 208 -44 14 0 -27 11 -90 24 -129 28 -125
27 -118 20z"/>
<path d="M7530 8030 c-31 -62 -34 -85 -3 -27 25 46 43 87 38 87 -3 0 -18 -27
-35 -60z"/>
<path d="M4880 8049 c53 -7 430 -10 400 -3 -8 1 -114 4 -235 6 -121 2 -195 1
-165 -3z"/>
<path d="M2735 7980 c9 -16 18 -30 21 -30 2 0 -2 14 -11 30 -9 17 -18 30 -21
30 -2 0 2 -13 11 -30z"/>
<path d="M7437 7870 c-65 -105 -67 -122 -4 -22 50 77 70 112 63 112 -2 0 -29
-40 -59 -90z"/>
<path d="M2770 7920 c17 -33 79 -125 151 -226 32 -44 63 -98 69 -120 l10 -39
-5 40 c-3 23 -17 56 -35 80 -17 22 -67 94 -111 160 -86 128 -99 145 -79 105z"/>
<path d="M7350 7740 c-12 -16 -19 -30 -16 -30 2 0 14 14 26 30 12 17 19 30 16
30 -2 0 -14 -13 -26 -30z"/>
<path d="M7255 7613 c-38 -49 -139 -160 -225 -248 -85 -87 -121 -128 -80 -91
108 98 272 278 354 389 55 73 18 36 -49 -50z"/>
<path d="M4018 7563 c6 -2 18 -2 25 0 6 3 1 5 -13 5 -14 0 -19 -2 -12 -5z"/>
<path d="M2942 7383 c-24 -79 -42 -147 -39 -149 2 -2 23 61 47 141 24 80 41
147 39 150 -2 2 -24 -62 -47 -142z"/>
<path d="M2482 7500 c0 -14 2 -19 5 -12 2 6 2 18 0 25 -3 6 -5 1 -5 -13z"/>
<path d="M2441 7339 c-58 -235 -91 -382 -87 -386 2 -3 14 40 26 94 12 54 40
167 62 251 21 84 38 158 36 164 -2 6 -19 -49 -37 -123z"/>
<path d="M2886 7194 c-4 -14 -5 -28 -3 -31 3 -2 8 8 11 23 4 14 5 28 3 31 -3
2 -8 -8 -11 -23z"/>
<path d="M6855 7200 c-5 -9 -120 -97 -266 -203 -23 -17 -23 -17 9 0 72 39 292
213 269 213 -3 0 -9 -5 -12 -10z"/>
<path d="M2830 7020 c-23 -73 -39 -134 -37 -136 2 -2 22 55 45 128 23 73 40
134 38 136 -2 2 -23 -56 -46 -128z"/>
<path d="M3535 6990 c-14 -6 -7 -7 21 -4 37 6 53 -1 160 -59 129 -71 372 -182
380 -174 3 3 -5 8 -18 12 -50 16 -298 135 -383 183 -87 51 -120 59 -160 42z"/>
<path d="M3465 6965 c-25 -12 -26 -14 -5 -9 28 7 60 23 45 23 -5 0 -23 -6 -40
-14z"/>
<path d="M6523 6959 c-18 -12 -33 -23 -33 -25 0 -7 58 25 65 36 9 14 5 13 -32
-11z"/>
<path d="M3257 6893 c-87 -31 -156 -58 -154 -60 5 -4 317 103 325 112 11 11
-18 2 -171 -52z"/>
<path d="M2341 6924 c0 -11 3 -14 6 -6 3 7 2 16 -1 19 -3 4 -6 -2 -5 -13z"/>
<path d="M6448 6914 c-38 -20 -36 -28 2 -9 17 9 30 18 30 20 0 7 -1 6 -32 -11z"/>
<path d="M2331 6884 c0 -11 3 -14 6 -6 3 7 2 16 -1 19 -3 4 -6 -2 -5 -13z"/>
<path d="M6310 6841 c-52 -25 -117 -57 -145 -69 -27 -12 -39 -19 -25 -16 32 8
270 121 270 128 0 8 9 11 -100 -43z"/>
<path d="M2762 6798 c-12 -39 -20 -73 -18 -76 3 -2 14 28 26 68 12 40 20 74
17 76 -2 2 -14 -28 -25 -68z"/>
<path d="M2321 6844 c0 -11 3 -14 6 -6 3 7 2 16 -1 19 -3 4 -6 -2 -5 -13z"/>
<path d="M2920 6774 c-85 -29 -148 -54 -138 -54 16 0 298 97 307 105 9 10 -19
2 -169 -51z"/>
<path d="M2277 6668 c-21 -83 -36 -153 -34 -155 3 -2 21 64 42 147 21 83 36
153 33 155 -2 2 -21 -64 -41 -147z"/>
<path d="M4111 6746 c8 -8 180 -66 193 -65 6 0 -26 13 -72 29 -110 38 -128 44
-121 36z"/>
<path d="M5975 6704 c-49 -18 -85 -33 -78 -33 12 -1 184 58 192 65 11 10 -32
-2 -114 -32z"/>
<path d="M4321 6675 c7 -7 192 -55 209 -54 8 0 -32 13 -90 29 -105 29 -128 34
-119 25z"/>
<path d="M5720 6634 c-74 -18 -127 -33 -117 -33 21 -1 277 59 277 65 0 7 -19
3 -160 -32z"/>
<path d="M4575 6609 c54 -16 233 -40 267 -36 30 3 30 4 -9 5 -22 1 -94 11
-158 22 -125 21 -147 23 -100 9z"/>
<path d="M5548 6593 c6 -2 18 -2 25 0 6 3 1 5 -13 5 -14 0 -19 -2 -12 -5z"/>
<path d="M5483 6583 c9 -2 25 -2 35 0 9 3 1 5 -18 5 -19 0 -27 -2 -17 -5z"/>
<path d="M5250 6569 c-63 -5 -121 -7 -127 -4 -7 2 -13 0 -13 -6 0 -10 177 -4
295 11 l60 7 -50 0 c-27 0 -102 -4 -165 -8z"/>
<path d="M4915 6564 c71 -8 163 -8 158 -1 -2 4 -46 6 -96 5 -51 0 -78 -3 -62
-4z"/>
<path d="M3540 6535 c-27 -15 -18 -19 15 -6 14 6 54 -10 150 -59 142 -73 285
-134 440 -187 111 -38 317 -93 343 -92 9 0 -35 14 -98 30 -246 64 -531 174
-721 279 -51 27 -94 50 -98 50 -3 -1 -17 -7 -31 -15z"/>
<path d="M3400 6489 c-47 -16 -197 -64 -335 -106 -225 -68 -312 -98 -230 -79
53 13 578 175 630 195 77 31 30 23 -65 -10z"/>
<path d="M2217 6433 c-22 -92 -21 -111 3 -151 21 -33 74 -72 100 -72 8 0 -4 9
-27 21 -46 23 -83 72 -83 111 0 13 7 50 15 83 9 32 14 63 12 69 -2 6 -11 -21
-20 -61z"/>
<path d="M2745 6289 c-106 -33 -281 -73 -340 -79 l-70 -7 56 -2 c36 0 105 11
190 34 154 40 231 63 209 63 -8 0 -28 -4 -45 -9z"/>
<path d="M5970 6259 c-42 -17 -218 -60 -345 -84 -66 -13 -109 -24 -95 -24 42
-1 310 57 405 88 50 16 83 29 75 29 -8 1 -26 -4 -40 -9z"/>
<path d="M4560 6176 c76 -20 291 -49 326 -43 24 3 22 4 -11 6 -22 0 -96 10
-165 21 -200 31 -212 32 -150 16z"/>
<path d="M5370 6140 c-55 -7 -55 -7 -10 -7 25 -1 68 2 95 7 47 7 48 7 10 7
-22 0 -65 -3 -95 -7z"/>
<path d="M5018 6123 c57 -2 147 -2 200 0 53 1 7 3 -103 3 -110 0 -154 -2 -97
-3z"/>
<path d="M1790 5453 c169 -2 288 -7 294 -13 16 -16 30 -11 16 5 -11 13 -55 15
-304 13 l-291 -3 285 -2z"/>
<path d="M2804 5428 c-17 -18 -41 -49 -53 -68 -25 -38 -19 -32 50 53 l30 37
313 0 c229 0 315 -3 324 -12 7 -7 13 -28 14 -47 l1 -36 4 33 c3 23 -1 40 -13
53 -16 18 -35 19 -329 19 l-311 0 -30 -32z"/>
<path d="M8162 5437 c-22 -24 -22 -24 -19 -433 l2 -409 3 411 c2 384 3 412 20
427 16 15 51 17 283 17 149 0 271 -4 279 -10 13 -8 16 -156 20 -1202 l5 -1193
3 1188 c2 1175 2 1187 -18 1207 -19 19 -33 20 -288 20 -268 0 -269 0 -290 -23z"/>
<path d="M1482 5438 c-9 -9 -12 -290 -12 -1203 0 -1142 1 -1193 18 -1208 16
-15 53 -17 310 -17 289 0 291 0 306 22 14 20 16 85 14 538 l-3 515 -5 -520
c-3 -286 -9 -526 -13 -532 -11 -18 -587 -19 -605 -1 -17 17 -17 2389 0 2406 7
7 10 12 7 12 -3 0 -10 -5 -17 -12z"/>
<path d="M2112 4918 c-1 -280 0 -508 3 -508 2 0 9 10 16 21 7 15 8 19 0 15 -8
-5 -12 133 -14 486 l-2 493 -3 -507z"/>
<path d="M3380 5218 c-52 -72 -112 -155 -133 -185 -21 -29 -36 -53 -34 -53 7
0 235 312 261 358 21 37 -10 -2 -94 -120z"/>
<path d="M2653 5220 c-37 -56 -121 -177 -185 -271 -123 -178 -138 -201 -121
-184 13 12 96 131 247 353 61 89 117 171 125 182 7 11 11 20 8 20 -4 0 -37
-45 -74 -100z"/>
<path d="M3127 4868 c-289 -402 -408 -569 -413 -583 -3 -6 37 -71 87 -145 376
-553 698 -1042 702 -1066 l4 -29 2 28 c1 21 -23 65 -87 160 -49 73 -208 310
-354 527 -146 217 -284 423 -308 457 l-43 61 79 111 c44 61 95 133 114 160 19
27 84 118 144 202 61 85 121 169 134 187 13 17 22 32 19 32 -3 0 -39 -46 -80
-102z"/>
<path d="M4318 4853 c29 -2 74 -2 100 0 26 2 2 3 -53 3 -55 0 -76 -1 -47 -3z"/>
<path d="M7617 4853 c18 -2 50 -2 70 0 21 2 7 4 -32 4 -38 0 -55 -2 -38 -4z"/>
<path d="M4208 4843 c12 -2 30 -2 40 0 9 3 -1 5 -23 4 -22 0 -30 -2 -17 -4z"/>
<path d="M4488 4843 c12 -2 30 -2 40 0 9 3 -1 5 -23 4 -22 0 -30 -2 -17 -4z"/>
<path d="M7490 4840 c-17 -6 -9 -7 25 -3 28 3 52 7 54 9 8 7 -54 2 -79 -6z"/>
<path d="M7743 4843 c9 -2 25 -2 35 0 9 3 1 5 -18 5 -19 0 -27 -2 -17 -5z"/>
<path d="M4070 4816 c-70 -21 -200 -80 -200 -91 0 -3 32 11 71 30 38 20 109
47 157 60 48 13 78 24 67 24 -11 0 -54 -10 -95 -23z"/>
<path d="M4575 4831 c11 -4 38 -11 60 -14 25 -4 33 -4 20 2 -11 4 -38 11 -60
14 -25 4 -33 4 -20 -2z"/>
<path d="M7808 4833 c7 -3 16 -2 19 1 4 3 -2 6 -13 5 -11 0 -14 -3 -6 -6z"/>
<path d="M5567 4823 c-3 -5 74 -7 171 -5 334 4 367 8 100 10 -147 1 -269 -1
-271 -5z"/>
<path d="M6521 4819 c-24 -5 -47 -11 -50 -15 -3 -4 5 -4 19 0 14 4 68 10 121
13 149 9 139 28 139 -260 0 -133 -4 -248 -9 -256 -5 -8 -29 -18 -53 -21 l-43
-7 38 -2 c25 -1 43 5 57 19 19 19 20 33 20 264 0 242 0 245 -22 260 -25 18
-140 20 -217 5z"/>
<path d="M7405 4815 c-39 -17 -21 -18 25 0 19 7 28 14 20 14 -8 0 -28 -6 -45
-14z"/>
<path d="M4695 4800 c27 -12 43 -12 25 0 -8 5 -22 9 -30 9 -10 0 -8 -3 5 -9z"/>
<path d="M7944 4781 c27 -16 76 -53 110 -82 55 -47 57 -48 21 -10 -42 44 -149
121 -169 121 -6 0 11 -13 38 -29z"/>
<path d="M6383 4770 c-33 -17 -68 -40 -79 -52 -15 -18 -12 -17 17 5 19 14 60
38 90 51 30 14 49 25 43 25 -6 1 -38 -13 -71 -29z"/>
<path d="M7274 4751 c-92 -57 -221 -186 -272 -273 -42 -72 -98 -202 -106 -248
-4 -19 7 1 22 45 79 219 203 376 380 480 42 25 72 45 66 45 -5 0 -46 -22 -90
-49z"/>
<path d="M4821 4747 c98 -49 195 -123 270 -205 28 -31 42 -43 31 -26 -27 40
-137 143 -197 184 -44 30 -166 90 -182 90 -5 0 31 -20 78 -43z"/>
<path d="M5535 3920 c0 -481 1 -678 2 -438 2 241 2 635 0 875 -1 241 -2 44 -2
-437z"/>
<path d="M6133 4725 c0 -38 2 -53 4 -32 2 20 2 52 0 70 -2 17 -4 1 -4 -38z"/>
<path d="M2242 4618 c-102 -154 -105 -158 -98 -158 4 0 41 53 84 118 42 64 85
129 95 145 11 15 17 27 14 27 -3 0 -46 -60 -95 -132z"/>
<path d="M3814 4692 c-21 -16 -46 -37 -54 -48 -8 -10 1 -5 20 11 20 17 47 38
60 47 14 9 22 17 19 17 -3 1 -24 -12 -45 -27z"/>
<path d="M6249 4673 l-24 -28 28 24 c15 14 27 26 27 28 0 8 -8 1 -31 -24z"/>
<path d="M6134 4637 c-2 -7 0 -31 5 -52 l10 -40 -1 53 c-2 53 -5 62 -14 39z"/>
<path d="M6203 4618 c-22 -24 -47 -68 -41 -72 2 -2 17 19 35 45 35 54 36 60 6
27z"/>
<path d="M3683 4578 c-53 -57 -133 -168 -120 -168 2 0 20 24 39 53 19 28 59
78 87 110 29 31 51 57 48 57 -2 0 -26 -24 -54 -52z"/>
<path d="M6140 4519 c0 -5 5 -7 10 -4 6 3 10 8 10 11 0 2 -4 4 -10 4 -5 0 -10
-5 -10 -11z"/>
<path d="M5175 4423 c21 -35 39 -63 42 -63 7 0 -47 92 -64 110 -8 8 2 -13 22
-47z"/>
<path d="M3516 4327 c-18 -40 -36 -88 -39 -107 -6 -34 -6 -33 7 5 7 22 27 70
44 108 17 37 29 67 26 67 -3 0 -20 -33 -38 -73z"/>
<path d="M4254 4330 c-101 -40 -186 -145 -220 -274 -29 -109 -11 -303 37 -397
26 -52 88 -119 131 -142 30 -16 30 -16 8 0 -121 84 -180 216 -180 402 0 193
89 349 228 401 84 32 206 25 286 -15 125 -63 181 -168 206 -380 l9 -80 -4 82
c-10 199 -87 334 -224 396 -68 31 -208 34 -277 7z"/>
<path d="M7815 4340 c128 -11 201 -59 274 -180 11 -19 21 -30 21 -24 0 22 -58
101 -105 142 -57 50 -124 73 -209 71 -61 -2 -60 -2 19 -9z"/>
<path d="M7674 4326 c-18 -8 -51 -31 -73 -52 -44 -39 -98 -120 -87 -131 3 -3
9 3 12 13 24 66 104 142 179 171 16 6 23 12 15 12 -8 0 -29 -6 -46 -13z"/>
<path d="M5231 4330 c0 -3 13 -41 29 -85 32 -89 41 -90 11 -2 -18 51 -40 100
-40 87z"/>
<path d="M6455 4280 c-16 -4 17 -5 75 -2 58 3 107 6 109 8 8 7 -153 2 -184 -6z"/>
<path d="M6331 4233 c-98 -58 -156 -149 -182 -287 -5 -27 -9 -235 -9 -462 0
-244 -4 -423 -10 -438 l-10 -26 -278 0 c-208 0 -282 3 -292 13 -12 10 -12 9
-1 -6 13 -16 36 -17 295 -15 l280 3 13 25 c10 19 13 125 13 435 0 226 4 435 9
465 24 142 93 244 203 299 34 17 55 31 47 31 -8 0 -43 -17 -78 -37z"/>
<path d="M6881 4174 c0 -11 3 -14 6 -6 3 7 2 16 -1 19 -3 4 -6 -2 -5 -13z"/>
<path d="M3451 4118 c-6 -35 -13 -106 -16 -158 l-4 -95 9 90 c5 50 15 118 21
153 6 35 9 65 6 68 -2 3 -10 -23 -16 -58z"/>
<path d="M5291 4144 c0 -11 3 -14 6 -6 3 7 2 16 -1 19 -3 4 -6 -2 -5 -13z"/>
<path d="M6866 4109 c-3 -17 -5 -48 -5 -68 1 -24 4 -15 10 29 9 68 6 92 -5 39z"/>
<path d="M7486 4079 c-20 -73 -28 -172 -18 -239 7 -47 8 -38 8 60 0 79 6 132
17 169 9 30 15 56 13 59 -3 2 -12 -20 -20 -49z"/>
<path d="M2110 4111 c0 -5 3 -11 8 -13 4 -1 52 -73 107 -158 54 -85 171 -265
260 -400 88 -135 194 -297 235 -360 41 -63 87 -127 102 -142 l28 -28 312 2
313 3 -311 2 -310 3 -31 33 c-42 45 -693 1039 -693 1058 0 5 -4 9 -10 9 -5 0
-10 -4 -10 -9z"/>
<path d="M5307 4040 c3 -47 7 -87 9 -89 7 -8 3 83 -6 129 -6 33 -7 22 -3 -40z"/>
<path d="M8111 4120 c0 -3 6 -25 13 -50 8 -25 15 -36 15 -25 0 17 -26 88 -28
75z"/>
<path d="M8142 3918 c-3 -170 -28 -255 -98 -337 -49 -57 -111 -90 -197 -107
l-72 -14 60 5 c155 14 272 129 305 300 6 33 10 105 8 160 l-4 100 -2 -107z"/>
<path d="M6853 3910 c0 -41 2 -58 4 -37 2 20 2 54 0 75 -2 20 -4 3 -4 -38z"/>
<path d="M5322 3900 c0 -14 2 -19 5 -12 2 6 2 18 0 25 -3 6 -5 1 -5 -13z"/>
<path d="M3445 3790 c3 -74 23 -186 31 -177 3 2 0 26 -7 53 -6 27 -15 83 -19
124 l-9 75 4 -75z"/>
<path d="M5313 3810 c0 -25 2 -35 4 -22 2 12 2 32 0 45 -2 12 -4 2 -4 -23z"/>
<path d="M4742 3810 c0 -19 2 -27 5 -17 2 9 2 25 0 35 -3 9 -5 1 -5 -18z"/>
<path d="M6861 3784 c0 -21 4 -57 9 -79 6 -30 7 -21 3 35 -6 81 -13 107 -12
44z"/>
<path d="M7484 3751 c10 -56 51 -136 96 -185 46 -50 130 -97 169 -95 20 1 17
3 -12 10 -107 25 -185 104 -233 235 -14 39 -23 54 -20 35z"/>
<path d="M4731 3755 c-2 -37 -49 -124 -92 -170 -43 -47 -117 -92 -174 -106
-27 -6 -28 -7 -5 -8 41 -1 122 43 174 95 52 52 111 161 103 191 -4 16 -5 15
-6 -2z"/>
<path d="M5296 3707 c-9 -61 -45 -167 -81 -237 -93 -184 -229 -314 -430 -411
-55 -27 -95 -49 -89 -49 41 0 211 98 305 176 98 81 176 184 233 304 44 94 83
226 74 252 -3 7 -8 -8 -12 -35z"/>
<path d="M6881 3646 c-1 -24 53 -184 84 -251 49 -102 172 -244 265 -304 33
-21 32 -20 -5 11 -175 145 -257 269 -319 479 -14 46 -25 76 -25 65z"/>
<path d="M3486 3580 c3 -14 11 -32 16 -40 6 -10 7 -7 2 10 -3 14 -11 32 -16
40 -6 10 -7 7 -2 -10z"/>
<path d="M4265 3485 c17 -8 41 -14 55 -14 15 0 5 6 -25 14 -62 17 -69 17 -30
0z"/>
<path d="M3520 3487 c0 -15 43 -93 85 -152 64 -90 185 -200 275 -250 26 -14 7
2 -60 50 -122 89 -201 177 -266 299 -19 33 -34 57 -34 53z"/>
<path d="M4368 3463 c12 -2 32 -2 45 0 12 2 2 4 -23 4 -25 0 -35 -2 -22 -4z"/>
<path d="M8100 3172 c-81 -83 -128 -116 -233 -159 -45 -19 -68 -32 -52 -28 50
10 167 70 220 112 42 33 145 143 133 143 -1 0 -32 -31 -68 -68z"/>
<path d="M8163 3125 c0 -44 2 -61 4 -37 2 23 2 59 0 80 -2 20 -4 1 -4 -43z"/>
<path d="M3914 3065 c23 -18 169 -75 188 -74 7 0 -9 9 -37 19 -27 9 -77 29
-110 44 -33 14 -51 19 -41 11z"/>
<path d="M7270 3064 c0 -13 153 -76 215 -89 72 -15 217 -18 270 -5 17 3 -17 5
-75 2 -129 -6 -234 14 -337 63 -40 19 -73 32 -73 29z"/>
<path d="M8179 3028 c12 -16 38 -18 281 -18 243 0 269 2 281 18 11 14 11 15
-1 5 -10 -10 -81 -13 -280 -13 -199 0 -270 3 -280 13 -12 10 -12 9 -1 -5z"/>
<path d="M4635 3000 c-13 -5 -14 -9 -5 -9 8 0 24 4 35 9 13 5 14 9 5 9 -8 0
-24 -4 -35 -9z"/>
<path d="M4145 2979 c38 -14 326 -23 384 -12 29 5 -15 8 -135 8 -99 0 -201 3
-229 7 -42 6 -45 6 -20 -3z"/>
<path d="M4588 2983 c7 -3 16 -2 19 1 4 3 -2 6 -13 5 -11 0 -14 -3 -6 -6z"/>
</g>
</svg>
